<svg width="140" height="63" viewBox="0 0 140 63" fill="none" xmlns="http://www.w3.org/2000/svg">
<rect x="18" y="12" width="18" height="41" rx="5" fill="#F2F2F2"/>
<rect width="18" height="53" rx="5" fill="#D02A2A"/>
<path d="M56.568 36.152V53H52.464V42.896L48.696 53H45.384L41.592 42.872V53H37.488V36.152H42.336L47.064 47.816L51.744 36.152H56.568ZM60.1433 46.28C60.1433 44.904 60.3993 43.696 60.9113 42.656C61.4393 41.616 62.1513 40.816 63.0473 40.256C63.9433 39.696 64.9433 39.416 66.0473 39.416C66.9913 39.416 67.8153 39.608 68.5193 39.992C69.2393 40.376 69.7913 40.88 70.1753 41.504V39.608H74.2793V53H70.1753V51.104C69.7753 51.728 69.2153 52.232 68.4953 52.616C67.7913 53 66.9673 53.192 66.0233 53.192C64.9353 53.192 63.9433 52.912 63.0473 52.352C62.1513 51.776 61.4393 50.968 60.9113 49.928C60.3993 48.872 60.1433 47.656 60.1433 46.28ZM70.1753 46.304C70.1753 45.28 69.8873 44.472 69.3113 43.88C68.7513 43.288 68.0633 42.992 67.2473 42.992C66.4313 42.992 65.7353 43.288 65.1593 43.88C64.5993 44.456 64.3193 45.256 64.3193 46.28C64.3193 47.304 64.5993 48.12 65.1593 48.728C65.7353 49.32 66.4313 49.616 67.2473 49.616C68.0633 49.616 68.7513 49.32 69.3113 48.728C69.8873 48.136 70.1753 47.328 70.1753 46.304ZM86.8483 39.464C88.4163 39.464 89.6643 39.976 90.5923 41C91.5363 42.008 92.0083 43.4 92.0083 45.176V53H87.9283V45.728C87.9283 44.832 87.6963 44.136 87.2323 43.64C86.7683 43.144 86.1443 42.896 85.3603 42.896C84.5763 42.896 83.9523 43.144 83.4883 43.64C83.0243 44.136 82.7923 44.832 82.7923 45.728V53H78.6883V39.608H82.7923V41.384C83.2083 40.792 83.7683 40.328 84.4723 39.992C85.1763 39.64 85.9683 39.464 86.8483 39.464ZM101.388 39.416C102.332 39.416 103.156 39.608 103.86 39.992C104.58 40.376 105.132 40.88 105.516 41.504V39.608H109.62V52.976C109.62 54.208 109.372 55.32 108.876 56.312C108.396 57.32 107.652 58.12 106.644 58.712C105.652 59.304 104.412 59.6 102.924 59.6C100.94 59.6 99.3322 59.128 98.1002 58.184C96.8682 57.256 96.1642 55.992 95.9882 54.392H100.044C100.172 54.904 100.476 55.304 100.956 55.592C101.436 55.896 102.028 56.048 102.732 56.048C103.58 56.048 104.252 55.8 104.748 55.304C105.26 54.824 105.516 54.048 105.516 52.976V51.08C105.116 51.704 104.564 52.216 103.86 52.616C103.156 53 102.332 53.192 101.388 53.192C100.284 53.192 99.2842 52.912 98.3882 52.352C97.4922 51.776 96.7802 50.968 96.2522 49.928C95.7402 48.872 95.4842 47.656 95.4842 46.28C95.4842 44.904 95.7402 43.696 96.2522 42.656C96.7802 41.616 97.4922 40.816 98.3882 40.256C99.2842 39.696 100.284 39.416 101.388 39.416ZM105.516 46.304C105.516 45.28 105.228 44.472 104.652 43.88C104.092 43.288 103.404 42.992 102.588 42.992C101.772 42.992 101.076 43.288 100.5 43.88C99.9402 44.456 99.6602 45.256 99.6602 46.28C99.6602 47.304 99.9402 48.12 100.5 48.728C101.076 49.32 101.772 49.616 102.588 49.616C103.404 49.616 104.092 49.32 104.652 48.728C105.228 48.136 105.516 47.328 105.516 46.304ZM113.213 46.28C113.213 44.904 113.469 43.696 113.981 42.656C114.509 41.616 115.221 40.816 116.117 40.256C117.013 39.696 118.013 39.416 119.117 39.416C120.061 39.416 120.885 39.608 121.589 39.992C122.309 40.376 122.861 40.88 123.245 41.504V39.608H127.349V53H123.245V51.104C122.845 51.728 122.285 52.232 121.565 52.616C120.861 53 120.037 53.192 119.093 53.192C118.005 53.192 117.013 52.912 116.117 52.352C115.221 51.776 114.509 50.968 113.981 49.928C113.469 48.872 113.213 47.656 113.213 46.28ZM123.245 46.304C123.245 45.28 122.957 44.472 122.381 43.88C121.821 43.288 121.133 42.992 120.317 42.992C119.501 42.992 118.805 43.288 118.229 43.88C117.669 44.456 117.389 45.256 117.389 46.28C117.389 47.304 117.669 48.12 118.229 48.728C118.805 49.32 119.501 49.616 120.317 49.616C121.133 49.616 121.821 49.32 122.381 48.728C122.957 48.136 123.245 47.328 123.245 46.304Z" fill="#D02A2A"/>
<path d="M137.158 35.552L136.678 47.048H133.198L132.718 35.552H137.158ZM134.998 53.192C134.278 53.192 133.686 52.984 133.222 52.568C132.774 52.136 132.55 51.608 132.55 50.984C132.55 50.344 132.774 49.808 133.222 49.376C133.686 48.944 134.278 48.728 134.998 48.728C135.702 48.728 136.278 48.944 136.726 49.376C137.19 49.808 137.422 50.344 137.422 50.984C137.422 51.608 137.19 52.136 136.726 52.568C136.278 52.984 135.702 53.192 134.998 53.192Z" fill="#F2F2F2"/>
<path d="M12.672 20.48C12.368 19.92 11.928 19.496 11.352 19.208C10.792 18.904 10.128 18.752 9.36 18.752C8.032 18.752 6.968 19.192 6.168 20.072C5.368 20.936 4.968 22.096 4.968 23.552C4.968 25.104 5.384 26.32 6.216 27.2C7.064 28.064 8.224 28.496 9.696 28.496C10.704 28.496 11.552 28.24 12.24 27.728C12.944 27.216 13.456 26.48 13.776 25.52H8.568V22.496H17.496V26.312C17.192 27.336 16.672 28.288 15.936 29.168C15.216 30.048 14.296 30.76 13.176 31.304C12.056 31.848 10.792 32.12 9.384 32.12C7.72 32.12 6.232 31.76 4.92 31.04C3.624 30.304 2.608 29.288 1.872 27.992C1.152 26.696 0.792 25.216 0.792 23.552C0.792 21.888 1.152 20.408 1.872 19.112C2.608 17.8 3.624 16.784 4.92 16.064C6.216 15.328 7.696 14.96 9.36 14.96C11.376 14.96 13.072 15.448 14.448 16.424C15.84 17.4 16.76 18.752 17.208 20.48H12.672ZM45.5983 18.464C47.1663 18.464 48.4143 18.976 49.3423 20C50.2863 21.008 50.7583 22.4 50.7583 24.176V32H46.6783V24.728C46.6783 23.832 46.4463 23.136 45.9823 22.64C45.5183 22.144 44.8943 21.896 44.1103 21.896C43.3263 21.896 42.7023 22.144 42.2383 22.64C41.7743 23.136 41.5423 23.832 41.5423 24.728V32H37.4383V18.608H41.5423V20.384C41.9583 19.792 42.5183 19.328 43.2223 18.992C43.9263 18.64 44.7183 18.464 45.5983 18.464ZM67.6742 25.088C67.6742 25.472 67.6502 25.872 67.6022 26.288H58.3142C58.3782 27.12 58.6422 27.76 59.1062 28.208C59.5862 28.64 60.1702 28.856 60.8582 28.856C61.8822 28.856 62.5942 28.424 62.9942 27.56H67.3622C67.1382 28.44 66.7302 29.232 66.1382 29.936C65.5622 30.64 64.8342 31.192 63.9542 31.592C63.0742 31.992 62.0902 32.192 61.0022 32.192C59.6902 32.192 58.5222 31.912 57.4982 31.352C56.4742 30.792 55.6742 29.992 55.0982 28.952C54.5222 27.912 54.2342 26.696 54.2342 25.304C54.2342 23.912 54.5142 22.696 55.0742 21.656C55.6502 20.616 56.4502 19.816 57.4742 19.256C58.4982 18.696 59.6742 18.416 61.0022 18.416C62.2982 18.416 63.4502 18.688 64.4582 19.232C65.4662 19.776 66.2502 20.552 66.8102 21.56C67.3862 22.568 67.6742 23.744 67.6742 25.088ZM63.4742 24.008C63.4742 23.304 63.2342 22.744 62.7542 22.328C62.2742 21.912 61.6742 21.704 60.9542 21.704C60.2662 21.704 59.6822 21.904 59.2022 22.304C58.7382 22.704 58.4502 23.272 58.3382 24.008H63.4742ZM75.3833 20.84C75.8633 20.104 76.4633 19.528 77.1833 19.112C77.9033 18.68 78.7033 18.464 79.5833 18.464V22.808H78.4553C77.4313 22.808 76.6633 23.032 76.1513 23.48C75.6393 23.912 75.3833 24.68 75.3833 25.784V32H71.2793V18.608H75.3833V20.84ZM85.0489 17.216C84.3289 17.216 83.7369 17.008 83.2729 16.592C82.8249 16.16 82.6009 15.632 82.6009 15.008C82.6009 14.368 82.8249 13.84 83.2729 13.424C83.7369 12.992 84.3289 12.776 85.0489 12.776C85.7529 12.776 86.3289 12.992 86.7769 13.424C87.2409 13.84 87.4729 14.368 87.4729 15.008C87.4729 15.632 87.2409 16.16 86.7769 16.592C86.3289 17.008 85.7529 17.216 85.0489 17.216ZM87.0889 18.608V32H82.9849V18.608H87.0889ZM90.687 25.304C90.687 23.912 90.967 22.696 91.527 21.656C92.103 20.616 92.895 19.816 93.903 19.256C94.927 18.696 96.095 18.416 97.407 18.416C99.087 18.416 100.487 18.856 101.607 19.736C102.743 20.616 103.487 21.856 103.839 23.456H99.471C99.103 22.432 98.391 21.92 97.335 21.92C96.583 21.92 95.983 22.216 95.535 22.808C95.087 23.384 94.863 24.216 94.863 25.304C94.863 26.392 95.087 27.232 95.535 27.824C95.983 28.4 96.583 28.688 97.335 28.688C98.391 28.688 99.103 28.176 99.471 27.152H103.839C103.487 28.72 102.743 29.952 101.607 30.848C100.471 31.744 99.071 32.192 97.407 32.192C96.095 32.192 94.927 31.912 93.903 31.352C92.895 30.792 92.103 29.992 91.527 28.952C90.967 27.912 90.687 26.696 90.687 25.304Z" fill="#F2F2F2"/>
<path d="M33.8333 25.088C33.8333 25.472 33.8093 25.872 33.7613 26.288H24.4733C24.5373 27.12 24.8013 27.76 25.2653 28.208C25.7453 28.64 26.3293 28.856 27.0173 28.856C28.0413 28.856 28.7533 28.424 29.1533 27.56H33.5213C33.2973 28.44 32.8893 29.232 32.2973 29.936C31.7213 30.64 30.9933 31.192 30.1133 31.592C29.2333 31.992 28.2493 32.192 27.1613 32.192C25.8493 32.192 24.6813 31.912 23.6573 31.352C22.6333 30.792 21.8333 29.992 21.2573 28.952C20.6813 27.912 20.3933 26.696 20.3933 25.304C20.3933 23.912 20.6733 22.696 21.2333 21.656C21.8093 20.616 22.6093 19.816 23.6333 19.256C24.6573 18.696 25.8333 18.416 27.1613 18.416C28.4573 18.416 29.6093 18.688 30.6173 19.232C31.6253 19.776 32.4093 20.552 32.9693 21.56C33.5453 22.568 33.8333 23.744 33.8333 25.088ZM29.6333 24.008C29.6333 23.304 29.3933 22.744 28.9133 22.328C28.4333 21.912 27.8333 21.704 27.1133 21.704C26.4253 21.704 25.8413 21.904 25.3613 22.304C24.8973 22.704 24.6093 23.272 24.4973 24.008H29.6333Z" fill="#0A0A0A"/>
</svg>
